<?xml version="1.0" encoding="utf-8"?>
<!-- Generator: Adobe Illustrator 21.0.0, SVG Export Plug-In . SVG Version: 6.00 Build 0)  -->
<svg version="1.1" id="Layer_1" xmlns="http://www.w3.org/2000/svg" xmlns:xlink="http://www.w3.org/1999/xlink" x="0px" y="0px"
	 viewBox="0 0 500 500" style="enable-background:new 0 0 500 500;" xml:space="preserve">
<style type="text/css">
	.st0{fill:#898989;stroke:#200E29;stroke-width:5;stroke-miterlimit:10;}
</style>
<path class="st0" d="M250.2,38.5c0,0-35.2,2-54.9-13v49.8h54.9h54.9V25.5C285.4,40.7,250.2,38.5,250.2,38.5z"/>
<path class="st0" d="M204.6,13c8.1,0.8,44.9,4.1,91.1,0c0.9-0.1,1.9,0.6,2,1.5l5.9,28.2c0.2,1.1-0.3,2-1.4,2.2
	c-9,2.1-50.9,10.9-104.1-0.1c-1.1-0.2-1.7-1.2-1.5-2.2l5.9-28.1C202.8,13.6,203.7,12.9,204.6,13z"/>
<path class="st0" d="M403.3,65.3c0,0-85.4-36.6-98.2-39.8c0,0-11.9,41.2-54.9,41.2s-54.9-41.2-54.9-41.2
	c-12.6,3.2-98.2,39.8-98.2,39.8C71.7,96.8,18.7,177.8,18.7,177.8l72.8,58.9l31-26.2V480c5.2,6.4,127.7,6.8,127.7,6.8
	s122.5-0.5,127.7-6.8V210.4l31,26.2l72.8-58.9C481.6,177.6,428.6,96.8,403.3,65.3z M250.2,121c-1.9,0-3.4-1.5-3.4-3.4
	s1.5-3.4,3.4-3.4s3.4,1.5,3.4,3.4S252,121,250.2,121z M250.2,103.5c-1.9,0-3.4-1.5-3.4-3.4s1.5-3.4,3.4-3.4s3.4,1.5,3.4,3.4
	S252,103.5,250.2,103.5z M250.2,86.2c-1.9,0-3.4-1.5-3.4-3.4s1.5-3.4,3.4-3.4s3.4,1.5,3.4,3.4S252,86.2,250.2,86.2z"/>
<path class="st0" d="M250.2,74c0,0-34-27.9-46.8-60.1c-0.2-0.5-0.8-0.6-1.2-0.2l-14.3,13.7c0,0,3.6,40.7,47,68L250.2,74z"/>
<path class="st0" d="M250.2,74c0,0,34-27.9,46.8-60.1c0.2-0.5,0.8-0.6,1.2-0.2l14.3,13.7c0,0-3.6,40.7-47,68L250.2,74z"/>
</svg>
