<?xml version="1.0" encoding="utf-8"?>
<!-- Generator: Adobe Illustrator 21.0.0, SVG Export Plug-In . SVG Version: 6.00 Build 0)  -->
<svg version="1.1" id="Layer_1" xmlns="http://www.w3.org/2000/svg" xmlns:xlink="http://www.w3.org/1999/xlink" x="0px" y="0px"
	 viewBox="0 0 500 500" style="enable-background:new 0 0 500 500;" xml:space="preserve">
<style type="text/css">
	.st0{fill:#898989;stroke:#200E29;stroke-width:5;stroke-miterlimit:10;}
	.st1{fill:none;stroke:#200E29;stroke-width:5;stroke-miterlimit:10;}
	.st2{fill:none;stroke:#200E29;stroke-width:2;stroke-miterlimit:10;}
</style>
<g>
	<path class="st0" d="M250.5,27c0,0-43.3,0.7-69.3-8.2c-0.1,0-0.2,0-0.2,0.2v79.7h69.5H320V19c0-0.1-0.1-0.2-0.2-0.2
		C293.8,27.7,250.5,27,250.5,27z"/>
	<path class="st0" d="M405.5,59c0,0-33.7-21.8-85.1-40.1c-0.2-0.1-0.3,0-0.5,0.2c-1.5,4.9-19.9,58.8-69.4,59.5
		c-49.5-0.7-67.8-54.5-69.4-59.5c-0.1-0.2-0.2-0.3-0.5-0.2C129.3,37.3,95.6,59,95.6,59c-30.4,60.6-70.9,179.9-65,261.9
		s25.7,166.7,25.7,166.7c37.3-1.2,57.9-9.4,57.9-9.4c-6.5-51.6-16.6-175.7-16.6-175.7c3.2-17.5,26.8-106.3,26.8-106.3v282.7
		c22.9,8,126.2,8.8,126.2,8.8s103.5-0.9,126.2-8.8V196.2c0,0,23.6,88.8,26.8,106.3c0,0-10.1,124.1-16.6,175.7c0,0,20.5,8.1,57.9,9.4
		c0,0,19.5-84.5,25.7-166.7C476.8,238.9,435.9,119.5,405.5,59z"/>
	<path class="st1" d="M169.1,23.1c0,0,18.2,70,81.4,70s85.8-70,85.8-70"/>
	<path class="st2" d="M188.2,35.4c0,0,18.2,6.6,60.6,6.6s64.1-6.6,64.1-6.6"/>
</g>
</svg>
