<?xml version="1.0" encoding="utf-8"?>
<!-- Generator: Adobe Illustrator 21.0.0, SVG Export Plug-In . SVG Version: 6.00 Build 0)  -->
<svg version="1.1" id="Layer_1" xmlns="http://www.w3.org/2000/svg" xmlns:xlink="http://www.w3.org/1999/xlink" x="0px" y="0px"
	 viewBox="0 0 500 500" style="enable-background:new 0 0 500 500;" xml:space="preserve">
<style type="text/css">
	.st0{fill:#898989;stroke:#200E29;stroke-width:5;stroke-miterlimit:10;}
	.st1{fill:#898989;stroke:#200E29;stroke-width:2;stroke-miterlimit:10;}
</style>
<g>
	<path class="st0" d="M250.8,41.6c0,0-34.4,2-54.2-12.6c-0.2-0.1-0.5,0-0.5,0.2v40.2h54.7h54.7V29.2c0-0.2-0.2-0.3-0.5-0.2
		C285.4,43.6,250.8,41.6,250.8,41.6z"/>
	<g>
		<path class="st0" d="M403.1,68.1c0,0-83.3-35.6-97.2-39.5c-0.2-0.1-0.5,0.1-0.5,0.2c-1.4,4-12.9,36.8-48.2,40.3v57.5h-12.9V69.2
			c-35.2-3.7-46.6-36.3-48-40.3c-0.1-0.2-0.3-0.3-0.5-0.2c-13.8,3.8-97.2,39.5-97.2,39.5C73.5,99.5,20.7,180,20.7,180l72.4,58.6
			l30.8-26.1v268c5.1,6.3,127,6.8,127,6.8s121.9-0.5,127-6.8v-268l30.8,26.1l72.4-58.6C481.1,180,428.4,99.5,403.1,68.1z"/>
		<path class="st1" d="M257.3,69.2L257.3,69.2l-6.5,0.3l-6.5-0.3v0.1c2.1,0.2,4.3,0.3,6.6,0.3C253.1,69.6,255.2,69.5,257.3,69.2z"/>
		<path class="st1" d="M250.8,119.2c-1.9,0-3.4-1.5-3.4-3.4c0-1.9,1.5-3.4,3.4-3.4c1.9,0,3.4,1.5,3.4,3.4
			C254.3,117.6,252.7,119.2,250.8,119.2z M250.8,77.8c1.9,0,3.4,1.5,3.4,3.4c0,1.9-1.5,3.4-3.4,3.4c-1.9,0-3.4-1.5-3.4-3.4
			C247.4,79.3,248.9,77.8,250.8,77.8z M250.8,94.9c1.9,0,3.4,1.5,3.4,3.4c0,1.9-1.5,3.4-3.4,3.4c-1.9,0-3.4-1.5-3.4-3.4
			C247.4,96.5,248.9,94.9,250.8,94.9z"/>
	</g>
</g>
</svg>
