<?xml version="1.0" encoding="utf-8"?>
<!-- Generator: Adobe Illustrator 21.0.0, SVG Export Plug-In . SVG Version: 6.00 Build 0)  -->
<svg version="1.1" id="Layer_1" xmlns="http://www.w3.org/2000/svg" xmlns:xlink="http://www.w3.org/1999/xlink" x="0px" y="0px"
	 viewBox="0 0 500 500" style="enable-background:new 0 0 500 500;" xml:space="preserve">
<style type="text/css">
	.st0{fill:#898989;stroke:#200E29;stroke-width:5;stroke-miterlimit:10;}
</style>
<g>
	<path class="st0" d="M250,37.5c0,0-35.3,2-55.1-13.1v56.9H250h55.1V24.4C285.3,39.6,250,37.5,250,37.5z"/>
	<path class="st0" d="M403.5,64.4c0,0-85.6-36.7-98.4-39.9c0,0-12,41.3-55.1,41.3s-55.1-41.3-55.1-41.3
		c-12.7,3.2-98.4,39.9-98.4,39.9C71,96,17.8,177.1,17.8,177.1l73,59.1l31.1-26.3v270.2c5.2,6.4,128.1,6.8,128.1,6.8
		s122.8-0.5,128.1-6.8V209.8l31.1,26.3l73-59.1C482.1,177,428.9,96,403.5,64.4z"/>
	<path class="st0" d="M204.3,11.9c8.2,0.8,45,4.1,91.3,0c0.9-0.1,1.9,0.6,2,1.6l5.9,28.3c0.2,1.1-0.3,2-1.4,2.2
		c-9,2.1-51.1,10.9-104.4-0.1c-1.1-0.2-1.7-1.2-1.6-2.2l5.9-28.2C202.5,12.5,203.3,11.8,204.3,11.9z"/>
	<path class="st0" d="M250,73c0,0-34.1-27.9-46.9-60.3c-0.2-0.5-0.8-0.6-1.2-0.2l-14.3,13.7c0,0,3.6,40.8,47.2,68.2L250,73z"/>
	<path class="st0" d="M250,73c0,0,34.1-27.9,46.9-60.3c0.2-0.5,0.8-0.6,1.2-0.2l14.3,13.7c0,0-3.6,40.8-47.2,68.2L250,73z"/>
</g>
</svg>
